<?xml version="1.0" standalone="no"?>
<!DOCTYPE svg PUBLIC "-//W3C//DTD SVG 20010904//EN"
 "http://www.w3.org/TR/2001/REC-SVG-20010904/DTD/svg10.dtd">
<svg version="1.0" xmlns="http://www.w3.org/2000/svg"
 width="512.000000pt" height="512.000000pt" viewBox="0 0 512.000000 512.000000"
 preserveAspectRatio="xMidYMid meet">
<g transform="translate(0.000000,512.000000) scale(0.100000,-0.100000)"
fill="#000000" stroke="none">
<path d="M0 2560 l0 -2560 2560 0 2560 0 0 2560 0 2560 -2560 0 -2560 0 0
-2560z m3248 1170 l671 -385 -2 -784 -2 -784 -670 -383 c-368 -211 -676 -384
-684 -384 -8 0 -317 174 -688 387 -574 329 -670 388 -656 398 10 6 131 75 269
154 l252 142 228 -132 c126 -72 311 -178 412 -236 l183 -105 157 90 c86 50
270 156 407 235 l250 144 3 317 c1 174 0 316 -2 316 -2 0 -187 -106 -410 -235
l-406 -234 -677 387 -678 388 -2 160 -3 159 673 387 c369 213 679 386 688 385
9 -1 318 -175 687 -387z"/>
<path d="M2283 3352 c-150 -86 -273 -160 -273 -164 0 -7 537 -318 550 -318 6
0 546 305 558 315 3 3 -554 325 -560 324 -2 0 -126 -71 -275 -157z"/>
</g>
</svg>
